<?xml version="1.0" encoding="UTF-8" standalone="no"?>
<svg
   xmlns:dc="http://purl.org/dc/elements/1.1/"
   xmlns:cc="http://creativecommons.org/ns#"
   xmlns:rdf="http://www.w3.org/1999/02/22-rdf-syntax-ns#"
   xmlns:svg="http://www.w3.org/2000/svg"
   xmlns="http://www.w3.org/2000/svg"
   xmlns:sodipodi="http://sodipodi.sourceforge.net/DTD/sodipodi-0.dtd"
   xmlns:inkscape="http://www.inkscape.org/namespaces/inkscape"
   version="1.1"
   x="0px"
   y="0px"
   viewBox="0 0 100 100"
   id="svg3960"
   sodipodi:docname="add.svg"
   inkscape:version="0.92.2 (5c3e80d, 2017-08-06)">
  <metadata
     id="metadata3966">
    <rdf:RDF>
      <cc:Work
         rdf:about="">
        <dc:format>image/svg+xml</dc:format>
        <dc:type
           rdf:resource="http://purl.org/dc/dcmitype/StillImage" />
      </cc:Work>
    </rdf:RDF>
  </metadata>
  <defs
     id="defs3964" />
  <sodipodi:namedview
     pagecolor="#ffffff"
     bordercolor="#666666"
     borderopacity="1"
     objecttolerance="10"
     gridtolerance="10"
     guidetolerance="10"
     inkscape:pageopacity="0"
     inkscape:pageshadow="2"
     inkscape:window-width="1366"
     inkscape:window-height="706"
     id="namedview3962"
     showgrid="false"
     inkscape:zoom="2.36"
     inkscape:cx="-71.61017"
     inkscape:cy="50"
     inkscape:window-x="-8"
     inkscape:window-y="-8"
     inkscape:window-maximized="1"
     inkscape:current-layer="g3958" />
  <g
     transform="translate(0,-952.36218)"
     id="g3958">
    <path
       d="M 10.8125 10 A 1.0000999 1.0000999 0 0 0 10 11 L 10 89 A 1.0000999 1.0000999 0 0 0 11 90 L 89 90 A 1.0000999 1.0000999 0 0 0 90 89 L 90 11 A 1.0000999 1.0000999 0 0 0 89 10 L 11 10 A 1.0000999 1.0000999 0 0 0 10.8125 10 z M 12 12 L 88 12 L 88 88 L 12 88 L 12 12 z M 49.875 26.96875 A 1.0000999 1.0000999 0 0 0 49 28 L 49 49 L 28 49 A 1.0000999 1.0000999 0 0 0 27.8125 49 A 1.0043849 1.0043849 0 0 0 28 51 L 49 51 L 49 72 A 1.0000999 1.0000999 0 1 0 51 72 L 51 51 L 72 51 A 1.0000999 1.0000999 0 1 0 72 49 L 51 49 L 51 28 A 1.0000999 1.0000999 0 0 0 49.875 26.96875 z "
       transform="translate(0,952.36218)"
       id="path3956"
       style="fill:#008000" />
  </g>
</svg>
