<?xml version="1.0" encoding="iso-8859-1"?>
<!-- Generator: Adobe Illustrator 18.1.1, SVG Export Plug-In . SVG Version: 6.00 Build 0)  -->
<svg version="1.1" id="Capa_1" xmlns="http://www.w3.org/2000/svg" xmlns:xlink="http://www.w3.org/1999/xlink" x="0px" y="0px"
	 viewBox="0 0 503.71 503.71" style="enable-background:new 0 0 503.71 503.71;" xml:space="preserve">
<g>
	<path d="M392.75,503.71h-47.12c-1.928,0-3.438-1.988-3.438-4.525V251.92c0-2.859-9.229-10.709-14.188-14.927
		c-5.904-5.021-7.061-6.118-7.061-7.406v-46.24c0-2.537,1.51-4.525,3.438-4.525h20.749c0.087-0.062,0.443-0.598,0.438-1.495
		c-0.09-16.563-0.001-104.523,0-105.41l0.005-0.124c2.547-30.313,19.453-66.939,20.459-69.095C366.571,1.031,367.772,0,369.189,0
		s2.618,1.031,3.156,2.698c1.023,2.179,18.033,38.833,20.589,69.144l0.005,0.125c0,0.886,0.055,88.806-0.021,105.363
		c-0.004,0.896,0.352,1.431,0.5,1.503l20.579-0.011c1.928,0,3.438,1.988,3.438,4.525v46.24c0,1.288-1.157,2.385-7.061,7.406
		c-4.958,4.217-14.187,12.067-14.187,14.927v247.266C396.188,501.723,394.677,503.71,392.75,503.71z M323.943,229.283
		c0.651,0.872,3.486,3.283,6.005,5.425c8.637,7.346,15.244,13.278,15.244,17.212v247.266c0,0.908,0.365,1.461,0.517,1.54
		l46.986-0.015c0.163-0.118,0.493-0.662,0.493-1.525V251.92c0-3.934,6.606-9.866,15.243-17.212c2.519-2.142,5.354-4.554,6.005-5.425
		v-45.936c0-0.908-0.365-1.461-0.517-1.54l-20.562,0.015c-0.779,0-1.536-0.329-2.13-0.926c-0.837-0.841-1.314-2.146-1.308-3.579
		c0.075-16.363,0.023-102.496,0.021-105.285c-2.595-30.533-20.173-67.771-20.35-68.144l-0.083-0.214
		c-0.104-0.35-0.235-0.542-0.318-0.63c-0.083,0.088-0.214,0.28-0.318,0.629l-0.081,0.211c-0.176,0.373-17.637,37.57-20.222,68.098
		c-0.003,2.791-0.089,88.96,0,105.328c0.008,1.435-0.468,2.741-1.307,3.583c-0.595,0.598-1.352,0.928-2.131,0.928h-20.749
		c-0.073,0.063-0.438,0.617-0.438,1.525V229.283z"/>
	<path d="M393.625,372.037h-29.748c-0.829,0-1.5-0.671-1.5-1.5s0.671-1.5,1.5-1.5h29.748c0.829,0,1.5,0.671,1.5,1.5
		S394.454,372.037,393.625,372.037z"/>
	<path d="M393.625,392.624h-25.498c-0.829,0-1.5-0.671-1.5-1.5s0.671-1.5,1.5-1.5h25.498c0.829,0,1.5,0.671,1.5,1.5
		S394.454,392.624,393.625,392.624z"/>
	<path d="M393.625,413.212h-21.249c-0.829,0-1.5-0.671-1.5-1.5s0.671-1.5,1.5-1.5h21.249c0.829,0,1.5,0.671,1.5,1.5
		S394.454,413.212,393.625,413.212z"/>
	<path d="M393.625,433.8h-16.999c-0.829,0-1.5-0.671-1.5-1.5s0.671-1.5,1.5-1.5h16.999c0.829,0,1.5,0.671,1.5,1.5
		S394.454,433.8,393.625,433.8z"/>
	<path d="M393.625,454.387h-12.749c-0.829,0-1.5-0.671-1.5-1.5s0.671-1.5,1.5-1.5h12.749c0.829,0,1.5,0.671,1.5,1.5
		S394.454,454.387,393.625,454.387z"/>
	<path d="M305.314,340.78h-29.748c-0.829,0-1.5-0.671-1.5-1.5s0.671-1.5,1.5-1.5h29.748c0.829,0,1.5,0.671,1.5,1.5
		S306.143,340.78,305.314,340.78z"/>
	<path d="M305.314,361.368h-25.498c-0.829,0-1.5-0.671-1.5-1.5s0.671-1.5,1.5-1.5h25.498c0.829,0,1.5,0.671,1.5,1.5
		S306.143,361.368,305.314,361.368z"/>
	<path d="M305.314,381.956h-21.249c-0.829,0-1.5-0.671-1.5-1.5s0.671-1.5,1.5-1.5h21.249c0.829,0,1.5,0.671,1.5,1.5
		S306.143,381.956,305.314,381.956z"/>
	<path d="M305.314,402.543h-16.999c-0.829,0-1.5-0.671-1.5-1.5s0.671-1.5,1.5-1.5h16.999c0.829,0,1.5,0.671,1.5,1.5
		S306.143,402.543,305.314,402.543z"/>
	<path d="M305.314,423.131h-12.749c-0.829,0-1.5-0.671-1.5-1.5s0.671-1.5,1.5-1.5h12.749c0.829,0,1.5,0.671,1.5,1.5
		S306.143,423.131,305.314,423.131z"/>
	<path d="M389.406,139.89h-21.248c-0.829,0-1.5-0.671-1.5-1.5s0.671-1.5,1.5-1.5h21.248c0.829,0,1.5,0.671,1.5,1.5
		S390.235,139.89,389.406,139.89z"/>
	<path d="M389.406,160.856h-16.999c-0.829,0-1.5-0.671-1.5-1.5s0.671-1.5,1.5-1.5h16.999c0.829,0,1.5,0.671,1.5,1.5
		S390.235,160.856,389.406,160.856z"/>
	<path d="M392.62,181.822h-12.749c-0.829,0-1.5-0.671-1.5-1.5s0.671-1.5,1.5-1.5h12.749c0.829,0,1.5,0.671,1.5,1.5
		S393.449,181.822,392.62,181.822z"/>
	<path d="M203.979,219.198c-9.777,0-19.295-4.923-24.766-13.758c-8.143-13.151-4.004-31.398,9.038-39.845
		c3.558-2.305,7.621-3.756,12.078-4.313c0.817-0.104,1.571,0.48,1.674,1.302s-0.48,1.572-1.302,1.674
		c-4.004,0.501-7.645,1.797-10.819,3.854c-11.704,7.582-15.422,23.952-8.118,35.749c7.251,11.712,22.437,15.759,34.574,9.21
		c2.754-1.485,5.25-3.528,7.419-6.073c0.538-0.631,1.484-0.706,2.115-0.168s0.706,1.484,0.168,2.115
		c-2.411,2.828-5.196,5.104-8.278,6.767C213.386,218.073,208.653,219.198,203.979,219.198z"/>
	<path d="M240.95,503.71h-80.499v-72.602c1.168-24.945,18.847-44.431,40.25-44.431c21.402,0,39.081,19.486,40.248,44.361
		L240.95,503.71z M163.451,500.71h74.499v-69.602c-1.09-23.202-17.452-41.431-37.249-41.431s-36.16,18.229-37.251,41.501
		L163.451,500.71z"/>
	<path d="M301.527,503.71H99.874c-7.499,0-13.599-6.101-13.599-13.599l0.003-128.608c2.674-38.688,35.721-71.764,82.382-82.6
		c0.879-16.901,15.01-30.459,32.04-30.459s31.161,13.558,32.04,30.459c46.662,10.835,79.708,43.912,82.383,82.6l0.003,0.104v128.504
		C315.126,497.61,309.026,503.71,301.527,503.71z M89.275,361.659v128.453c0,5.844,4.755,10.599,10.599,10.599h201.653
		c5.844,0,10.599-4.755,10.599-10.599V361.659c-2.628-37.644-35.243-69.822-81.174-80.086l-1.155-0.258l-0.018-1.184
		c-0.239-15.818-13.284-28.687-29.08-28.687s-28.841,12.869-29.08,28.687l-0.018,1.184l-1.155,0.258
		C124.516,291.837,91.902,324.016,89.275,361.659z"/>
</g>
<g>
</g>
<g>
</g>
<g>
</g>
<g>
</g>
<g>
</g>
<g>
</g>
<g>
</g>
<g>
</g>
<g>
</g>
<g>
</g>
<g>
</g>
<g>
</g>
<g>
</g>
<g>
</g>
<g>
</g>
</svg>
