<?xml version="1.0" encoding="iso-8859-1"?>
<!-- Generator: Adobe Illustrator 19.1.0, SVG Export Plug-In . SVG Version: 6.00 Build 0)  -->
<svg version="1.1" id="Capa_1" xmlns="http://www.w3.org/2000/svg" xmlns:xlink="http://www.w3.org/1999/xlink" x="0px" y="0px"
	 viewBox="0 0 145.943 145.943" style="enable-background:new 0 0 145.943 145.943;" xml:space="preserve">
<g id="XMLID_11_">
	<path id="XMLID_477_" style="fill:#020400;" d="M73.277,0c0.828,5.624,1.737,11.219,2.437,16.84
		c0.268,2.149,0.448,4.167,2.177,5.762c1.342,1.238,1.982,3.124,1.274,4.658c-1.239,2.685,0.135,3.987,1.701,5.847
		c3.445,4.09,2.972,9.186-0.975,13.078c-1.102,1.086-1.921,1.814-0.835,3.33c0.273,0.381,0.352,1.091,0.207,1.551
		c-1.272,4.041,1.682,5.239,4.369,6.662c6.747,3.571,13.449,7.195,19.377,12.101c8.146,6.741,13.803,15.109,17.062,25.157
		c3.628,11.187,4.228,22.612,3.231,34.254c-0.398,4.651-1.102,9.259-1.479,13.905c-0.15,1.854-0.86,2.803-2.982,2.799
		c-30.635-0.056-61.27-0.043-91.905-0.022c-1.395,0.001-2.174-0.095-2.558-1.878c-2.029-9.408-2.297-18.912-2.129-28.473
		c0.191-10.878,2.717-21.12,7.908-30.706c4.194-7.744,10.306-13.675,17.413-18.69c5.547-3.914,11.773-6.671,17.526-10.237
		c1.236-0.766,2.544-1.303,1.351-3.078c-0.157-0.234-0.228-0.696-0.104-0.925c2.005-3.678-0.822-5.862-2.419-8.565
		c-2.198-3.721-1.228-8.857,2.082-11.597c1.27-1.051,1.798-1.733,0.815-3.261c-1.102-1.712-0.822-3.789,0.506-5.009
		c2.845-2.614,2.593-6.128,3.183-9.338c0.783-4.258,1.084-8.605,1.578-12.916C72.156,0.674,72.321,0.222,73.277,0z M83.692,92.968
		c-2.579,0.169-5.213,1.606-7.689-0.334l-0.007,0.191l0.109-0.156c0.398,2.673,0.242,5.355,0.139,8.033
		c-0.162,0.033-0.407,0.442-0.445-0.097c0.135,0.052,0.269,0.104,0.404,0.156c2.205-1.912,4.725-0.44,7.222-0.416
		c-0.938-2.715-1.148-5.148,0.316-7.461l-0.128-0.061L83.692,92.968z M62.883,79.402c-11.655,6.296-16.622,17.893-13.035,30.158
		c3.013,10.304,13.152,18.893,26.903,17.859c7.695-0.579,18.541-7.838,19.359-14.07c-10.492,3.966-19.988,2.125-27.789-5.71
		C60.521,99.804,59.04,90.238,62.883,79.402z"/>
	<path id="XMLID_440_" style="fill:#020400;" d="M76.204,100.76c-0.135-0.052-0.269-0.104-0.404-0.156
		c0.038,0.539,0.282,0.129,0.444,0.098C76.243,100.704,76.204,100.76,76.204,100.76z"/>
	<path id="XMLID_439_" style="fill:#020400;" d="M83.692,92.968l-0.078-0.145c0,0,0.128,0.061,0.13,0.054
		C83.747,92.869,83.692,92.968,83.692,92.968z"/>
	<path id="XMLID_438_" style="fill:#020400;" d="M76.105,92.668l-0.109,0.156c0,0,0.007-0.191,0.002-0.192
		C75.993,92.631,76.105,92.668,76.105,92.668z"/>
</g>
<g>
</g>
<g>
</g>
<g>
</g>
<g>
</g>
<g>
</g>
<g>
</g>
<g>
</g>
<g>
</g>
<g>
</g>
<g>
</g>
<g>
</g>
<g>
</g>
<g>
</g>
<g>
</g>
<g>
</g>
</svg>
