<?xml version="1.0" encoding="UTF-8" standalone="no"?>
<svg
   xmlns:dc="http://purl.org/dc/elements/1.1/"
   xmlns:cc="http://creativecommons.org/ns#"
   xmlns:rdf="http://www.w3.org/1999/02/22-rdf-syntax-ns#"
   xmlns:svg="http://www.w3.org/2000/svg"
   xmlns="http://www.w3.org/2000/svg"
   xmlns:sodipodi="http://sodipodi.sourceforge.net/DTD/sodipodi-0.dtd"
   xmlns:inkscape="http://www.inkscape.org/namespaces/inkscape"
   version="1.1"
   x="0px"
   y="0px"
   viewBox="0 0 100 100"
   style="enable-background:new 0 0 100 100;"
   xml:space="preserve"
   id="svg4558"
   sodipodi:docname="pencil.svg"
   inkscape:version="0.92.2 (5c3e80d, 2017-08-06)"><metadata
     id="metadata4564"><rdf:RDF><cc:Work
         rdf:about=""><dc:format>image/svg+xml</dc:format><dc:type
           rdf:resource="http://purl.org/dc/dcmitype/StillImage" /></cc:Work></rdf:RDF></metadata><defs
     id="defs4562" /><sodipodi:namedview
     pagecolor="#ffffff"
     bordercolor="#666666"
     borderopacity="1"
     objecttolerance="10"
     gridtolerance="10"
     guidetolerance="10"
     inkscape:pageopacity="0"
     inkscape:pageshadow="2"
     inkscape:window-width="640"
     inkscape:window-height="480"
     id="namedview4560"
     showgrid="false"
     inkscape:zoom="2.36"
     inkscape:cx="32.415254"
     inkscape:cy="50"
     inkscape:window-x="0"
     inkscape:window-y="0"
     inkscape:window-maximized="0"
     inkscape:current-layer="svg4558" /><g
     id="g4556"
     style="fill:#008000"><path
       d="M88.5,23.6L76.4,11.5c-1-1-2.3-1.5-3.7-1.5c-1.4,0-2.7,0.5-3.7,1.5l-8,8l19.5,19.5l8-8C90.5,29,90.5,25.7,88.5,23.6z    M86.4,29l-6,6L65,19.5l6-6c0.9-0.9,2.5-0.9,3.4,0l12.1,12.1C87.4,26.6,87.4,28.1,86.4,29z"
       id="path4552"
       style="fill:#008000" /><path
       d="M55.1,25.4L11.9,68.6c-0.7,0.7-1.1,1.6-1.1,2.6l-0.7,16c0,0.8,0.2,1.5,0.8,2c0.5,0.5,1.2,0.8,1.9,0.8c0,0,0.1,0,0.1,0   l16-0.7c1,0,1.9-0.5,2.6-1.1l43.2-43.2L55.1,25.4z M62.7,37L21.9,77.9l-7.6-7.6l40.8-40.8L62.7,37z M13.5,73.6l12.9,12.9l-13.5,0.6   L13.5,73.6z M29.7,85.7l-5.8-5.8l40.8-40.8l5.8,5.8L29.7,85.7z"
       id="path4554"
       style="fill:#008000" /></g></svg>