<?xml version="1.0" encoding="UTF-8" standalone="no"?>
<!-- Generator: Adobe Illustrator 19.0.0, SVG Export Plug-In . SVG Version: 6.00 Build 0)  -->

<svg
   xmlns:dc="http://purl.org/dc/elements/1.1/"
   xmlns:cc="http://creativecommons.org/ns#"
   xmlns:rdf="http://www.w3.org/1999/02/22-rdf-syntax-ns#"
   xmlns:svg="http://www.w3.org/2000/svg"
   xmlns="http://www.w3.org/2000/svg"
   xmlns:sodipodi="http://sodipodi.sourceforge.net/DTD/sodipodi-0.dtd"
   xmlns:inkscape="http://www.inkscape.org/namespaces/inkscape"
   version="1.1"
   id="Capa_1"
   x="0px"
   y="0px"
   viewBox="0 0 512 512"
   style="enable-background:new 0 0 512 512;"
   xml:space="preserve"
   sodipodi:docname="quran.svg"
   inkscape:version="0.92.2 (5c3e80d, 2017-08-06)"><metadata
     id="metadata302"><rdf:RDF><cc:Work
         rdf:about=""><dc:format>image/svg+xml</dc:format><dc:type
           rdf:resource="http://purl.org/dc/dcmitype/StillImage" /></cc:Work></rdf:RDF></metadata><defs
     id="defs300" /><sodipodi:namedview
     pagecolor="#ffffff"
     bordercolor="#666666"
     borderopacity="1"
     objecttolerance="10"
     gridtolerance="10"
     guidetolerance="10"
     inkscape:pageopacity="0"
     inkscape:pageshadow="2"
     inkscape:window-width="640"
     inkscape:window-height="480"
     id="namedview298"
     showgrid="false"
     inkscape:zoom="0.4609375"
     inkscape:cx="165.9661"
     inkscape:cy="256"
     inkscape:window-x="0"
     inkscape:window-y="0"
     inkscape:window-maximized="0"
     inkscape:current-layer="Capa_1" /><g
     id="g241"
     style="fill:#00ff00"><g
       id="g239"
       style="fill:#00ff00"><path
         d="M152.702,0H71.86c-4.958,0-8.982,4.024-8.982,8.982v449.123c0,4.958,4.024,8.982,8.982,8.982    c4.958,0,8.982-4.024,8.982-8.982V17.965h62.877v402.068c0,4.958,4.024,8.982,8.982,8.982s8.982-4.024,8.982-8.982V8.982    C161.684,4.024,157.66,0,152.702,0z"
         id="path237"
         style="fill:#00ff00" /></g></g><g
     id="g247"
     style="fill:#00ff00"><g
       id="g245"
       style="fill:#00ff00"><path
         d="M412.093,0H152.702c-4.958,0-8.982,4.024-8.982,8.982v409.649c0,4.958,4.024,8.982,8.982,8.982s8.982-4.024,8.982-8.982    V17.965h250.408c10.514,0,19.065,8.551,19.065,19.065v457.005H152.702c-4.958,0-8.982,4.024-8.982,8.982    c0,4.958,4.024,8.982,8.982,8.982H440.14c4.958,0,8.982-4.024,8.982-8.982V37.03C449.123,16.613,432.51,0,412.093,0z"
         id="path243"
         style="fill:#00ff00" /></g></g><g
     id="g253"
     style="fill:#00ff00"><g
       id="g251"
       style="fill:#00ff00"><path
         d="M440.14,413.193h-327.86c-27.239,0-49.403,22.164-49.403,49.404S85.041,512,112.281,512h327.86    c4.958,0,8.982-4.024,8.982-8.982v-80.842C449.123,417.217,445.099,413.193,440.14,413.193z M431.158,494.035H112.281    c-17.336,0-31.439-14.107-31.439-31.439s14.102-31.439,31.439-31.439h318.877V494.035z"
         id="path249"
         style="fill:#00ff00" /></g></g><g
     id="g259"
     style="fill:#00ff00"><g
       id="g257"
       style="fill:#00ff00"><path
         d="M330.909,309.553c-36.46-12.387-60.955-46.538-60.955-84.992s24.5-72.605,60.959-84.983c3.638-1.24,6.09-4.657,6.09-8.506    s-2.448-7.271-6.09-8.506c-11.313-3.844-22.968-5.794-34.65-5.794c-59.437,0-107.789,48.353-107.789,107.789    c0,59.432,48.353,107.789,107.789,107.789c11.691,0,23.35-1.949,34.645-5.785c3.642-1.24,6.09-4.657,6.09-8.506    S334.552,310.788,330.909,309.553z M296.264,314.386c-49.529,0-89.825-40.295-89.825-89.825c0-49.529,40.295-89.825,89.825-89.825    c1.298,0,2.591,0.027,3.889,0.09c-29.593,19.627-48.164,53.05-48.164,89.735s18.571,70.104,48.164,89.735    C298.855,314.354,297.562,314.386,296.264,314.386z"
         id="path255"
         style="fill:#00ff00" /></g></g><g
     id="g265"
     style="fill:#00ff00"><g
       id="g263"
       style="fill:#00ff00"><path
         d="M385.388,207.221c-1.868-5.749-7.177-9.607-13.218-9.607h-10.029l-3.103-9.544c0,0,0-0.005-0.004-0.005    c-1.868-5.74-7.181-9.598-13.213-9.598s-11.345,3.858-13.218,9.607l-3.094,9.539h-10.029c-6.041,0-11.349,3.858-13.218,9.602    c-1.864,5.74,0.162,11.983,5.048,15.535l8.111,5.892l-3.094,9.544c-1.864,5.744,0.166,11.987,5.057,15.535    c2.443,1.774,5.3,2.659,8.161,2.659c2.865,0,5.722-0.889,8.161-2.659l8.12-5.897l8.107,5.892c4.886,3.553,11.457,3.557,16.344,0    c4.886-3.548,6.912-9.795,5.044-15.531l-3.094-9.544l8.107-5.888C385.222,219.208,387.252,212.965,385.388,207.221z     M359.262,215.853c-4.886,3.557-6.908,9.809-5.035,15.526l0.144,0.454l-0.373-0.274c-2.448-1.783-5.309-2.672-8.179-2.672    c-2.861,0-5.722,0.889-8.161,2.663l-0.386,0.283l0.144-0.449c1.868-5.744-0.162-11.992-5.044-15.535l-0.373-0.27h0.463    c6.027,0,11.34-3.849,13.222-9.602l0.139-0.436l0.139,0.436c1.868,5.744,7.177,9.602,13.218,9.602h0.463L359.262,215.853z"
         id="path261"
         style="fill:#00ff00" /></g></g><g
     id="g267" /><g
     id="g269" /><g
     id="g271" /><g
     id="g273" /><g
     id="g275" /><g
     id="g277" /><g
     id="g279" /><g
     id="g281" /><g
     id="g283" /><g
     id="g285" /><g
     id="g287" /><g
     id="g289" /><g
     id="g291" /><g
     id="g293" /><g
     id="g295" /></svg>