<?xml version="1.0" encoding="UTF-8" standalone="no"?>
<!-- Generator: Adobe Illustrator 19.0.0, SVG Export Plug-In . SVG Version: 6.00 Build 0)  -->

<svg
   xmlns:dc="http://purl.org/dc/elements/1.1/"
   xmlns:cc="http://creativecommons.org/ns#"
   xmlns:rdf="http://www.w3.org/1999/02/22-rdf-syntax-ns#"
   xmlns:svg="http://www.w3.org/2000/svg"
   xmlns="http://www.w3.org/2000/svg"
   xmlns:sodipodi="http://sodipodi.sourceforge.net/DTD/sodipodi-0.dtd"
   xmlns:inkscape="http://www.inkscape.org/namespaces/inkscape"
   version="1.1"
   id="Capa_1"
   x="0px"
   y="0px"
   viewBox="0 0 496.01 496.01"
   style="enable-background:new 0 0 496.01 496.01;"
   xml:space="preserve"
   sodipodi:docname="salah.svg"
   inkscape:version="0.92.2 (5c3e80d, 2017-08-06)"><metadata
     id="metadata4903"><rdf:RDF><cc:Work
         rdf:about=""><dc:format>image/svg+xml</dc:format><dc:type
           rdf:resource="http://purl.org/dc/dcmitype/StillImage" /></cc:Work></rdf:RDF></metadata><defs
     id="defs4901" /><sodipodi:namedview
     pagecolor="#ffffff"
     bordercolor="#666666"
     borderopacity="1"
     objecttolerance="10"
     gridtolerance="10"
     guidetolerance="10"
     inkscape:pageopacity="0"
     inkscape:pageshadow="2"
     inkscape:window-width="640"
     inkscape:window-height="480"
     id="namedview4899"
     showgrid="false"
     inkscape:zoom="0.47579685"
     inkscape:cx="595.84253"
     inkscape:cy="248.005"
     inkscape:window-x="77"
     inkscape:window-y="7"
     inkscape:window-maximized="0"
     inkscape:current-layer="Capa_1" /><g
     id="g4866"
     style="fill:#00ff00"><g
       id="g4864"
       style="fill:#00ff00"><g
         id="g4862"
         style="fill:#00ff00"><path
           d="M439.468,353.674c0.01-0.091,0.017-0.183,0.026-0.274c0.054-0.511,0.102-1.023,0.147-1.536     c0.024-0.265,0.05-0.53,0.071-0.795c0.043-0.534,0.077-1.069,0.11-1.605c0.015-0.248,0.034-0.496,0.047-0.744     c0.03-0.574,0.051-1.15,0.071-1.727c0.007-0.209,0.018-0.418,0.024-0.627c0.021-0.783,0.032-1.568,0.032-2.355     c0-13.088-2.877-25.515-8.024-36.69c9.198-22.932,14.498-47.129,15.728-71.958c0.256-5.024-1.536-9.824-5.04-13.512     c-7.376-7.736-21.136-7.384-28.112,1.112c-12.769,15.561-29.389,27.373-48.122,34.238c-4.697-0.778-9.516-1.19-14.43-1.19     c-12.515,0-24.573,2.689-35.542,7.569l0.014-0.145c-51.88-5.184-93.808-46.496-99.712-98.224     c-6.016-52.728,24.696-101.592,74.696-118.824c7.504-2.584,12.544-9.784,12.544-17.912c0-8.416-5.312-15.728-13.208-18.208     c-31.664-9.936-64.504-12.68-97.584-8.144C91.716,16.042,10.916,99.978,1.076,201.722     c-7.105,73.467,21.754,144.973,77.377,192.549c-4.134,9.073-6.457,19.137-6.457,29.739c0,39.696,32.304,72,72,72h280     c39.696,0,72-32.304,72-72C495.996,389.658,472.22,360.77,439.468,353.674z M426.916,233.114c1.16-1.416,3.104-1.336,4.152-0.232     c0.328,0.344,0.704,0.904,0.664,1.688c-0.947,18.94-4.444,37.496-10.394,55.322c-8.48-10.842-19.445-19.649-32.027-25.565     C403.634,256.477,416.42,245.908,426.916,233.114z M16.996,203.258c9.144-94.44,84.16-172.368,178.376-185.28     c30.736-4.224,61.224-1.672,90.624,7.56c1.176,0.368,2,1.576,2,2.936c0,1.28-0.72,2.424-1.752,2.784     c-57.152,19.696-92.256,75.528-85.384,135.76c6.029,52.833,44.902,96.151,95.39,109.043     c-11.144,9.148-20.089,21.016-25.694,34.773c-9.528-4.488-19.928-6.824-30.56-6.824c-32.975,0-61.128,22.164-69.473,53.087     c-6.181-2.46-12.774-4.096-19.652-4.751c-0.318-0.031-0.637-0.046-0.955-0.073c-0.805-0.066-1.609-0.135-2.421-0.175     c-1.164-0.058-2.331-0.089-3.499-0.089c-23.283,0-44.012,11.123-57.182,28.323C36.496,336.16,10.485,270.604,16.996,203.258z      M423.996,480.01h-280c-30.88,0-56-25.12-56-56s25.12-56,56-56c0.831,0,1.656,0.027,2.479,0.063     c0.265,0.012,0.53,0.025,0.794,0.04c0.604,0.035,1.204,0.083,1.803,0.138c0.609,0.056,1.217,0.123,1.823,0.199     c0.228,0.028,0.456,0.056,0.683,0.087c7.282,1.011,14.349,3.466,20.77,7.257l1.759,1.037     c15.552,9.96,25.889,27.379,25.889,47.179h16c0-24.417-12.233-46.023-30.879-59.049c5.163-25.944,27.945-44.951,54.879-44.951     c10.904,0,21.496,3.168,30.624,9.152l9.152,6l2.944-10.536c8.656-30.976,37.144-52.616,69.28-52.616c39.696,0,72,32.304,72,72     c0,2.463-0.126,4.929-0.377,7.383c-0.013,0.122-0.033,0.242-0.046,0.364c-0.116,1.083-0.25,2.164-0.415,3.241     c-0.132,0.86-0.296,1.71-0.458,2.56c-0.061,0.323-0.109,0.648-0.175,0.97c-6.736,32.763-35.804,57.482-70.528,57.482v16     c39.706,0,73.352-26.441,84.268-62.637c25.354,5.602,43.732,27.998,43.732,54.637C479.996,454.89,454.876,480.01,423.996,480.01z     "
           id="path4856"
           style="fill:#00ff00" /><path
           d="M119.988,82.026l-9.472-12.896c-49.168,36.08-78.52,93.976-78.52,154.88h16     C47.996,168.178,74.908,115.106,119.988,82.026z"
           id="path4858"
           style="fill:#00ff00" /><path
           d="M147.476,65.482l-6.968-14.408c-5.672,2.744-11.296,5.816-16.696,9.128l8.36,13.64     C137.124,70.81,142.276,67.994,147.476,65.482z"
           id="path4860"
           style="fill:#00ff00" /></g></g></g><g
     id="g4868" /><g
     id="g4870" /><g
     id="g4872" /><g
     id="g4874" /><g
     id="g4876" /><g
     id="g4878" /><g
     id="g4880" /><g
     id="g4882" /><g
     id="g4884" /><g
     id="g4886" /><g
     id="g4888" /><g
     id="g4890" /><g
     id="g4892" /><g
     id="g4894" /><g
     id="g4896" /></svg>